<svg xmlns="http://www.w3.org/2000/svg" xmlns:xlink="http://www.w3.org/1999/xlink" viewBox="0 0 5000 5000"><defs><radialGradient id="radial-gradient" cx="2500" cy="2500" r="2500" gradientUnits="userSpaceOnUse"><stop offset="0" stop-color="#fff"/><stop offset="0.24" stop-color="#aebcb5"/><stop offset="0.46" stop-color="#627e70"/><stop offset="0.54" stop-color="#4f695a"/><stop offset="0.75" stop-color="#243b29"/><stop offset="0.91" stop-color="#0a1e0b"/><stop offset="1" stop-color="#001300"/></radialGradient></defs><title>china</title><g id="Layer_1" data-name="Layer 1"><rect width="5000" height="5000" style="fill:url(#radial-gradient)"/></g><g id="Layer_2" data-name="Layer 2"><circle cx="779.13" cy="420.59" r="13.17" style="fill:#bcb489;opacity:0.61"/><circle cx="1002.18" cy="313.59" r="17.28" style="fill:#bcb489"/><circle cx="966.89" cy="399.4" r="10.19" style="fill:#bcb489"/><circle cx="343.74" cy="146.52" r="9.88" style="fill:#bcb489;opacity:0.29"/><circle cx="214.11" cy="190.96" r="12.35" style="fill:#bcb489"/><circle cx="1027.08" cy="135.2" r="13.58" style="fill:#bcb489"/><circle cx="1208.35" cy="263.8" r="9.05" style="fill:#bcb489"/><circle cx="1292.3" cy="198.37" r="9.88" style="fill:#bcb489;opacity:0.61"/><circle cx="1372.55" cy="389.21" r="8.9" style="fill:#bcb489"/><circle cx="1375.23" cy="672.55" r="9.57" style="fill:#bcb489"/><circle cx="1061.95" cy="680.88" r="11.42" style="fill:#bcb489;opacity:0.36"/><circle cx="1225.23" cy="807.12" r="9.88" style="fill:#bcb489;opacity:0.61"/><circle cx="1090.97" cy="887.05" r="11.73" style="fill:#bcb489"/><circle cx="1170.29" cy="953.1" r="9.57" style="fill:#bcb489;opacity:0.36"/><circle cx="919.98" cy="1014.21" r="12.35" style="fill:#bcb489"/><circle cx="690.96" cy="1032.73" r="9.57" style="fill:#bcb489"/><circle cx="903" cy="1194.15" r="10.49" style="fill:#bcb489"/><circle cx="870.29" cy="1239.22" r="7.72" style="fill:#bcb489"/><circle cx="3716.75" cy="497.55" r="22.84" style="fill:#bcb489"/><circle cx="1655.47" cy="873.47" r="10.49" style="fill:#bcb489"/><circle cx="1644.98" cy="753.72" r="11.11" style="fill:#bcb489;opacity:0.37"/><circle cx="2162.57" cy="485.2" r="11.73" style="fill:#bcb489"/><circle cx="2191.28" cy="630.57" r="10.49" style="fill:#bcb489;opacity:0.61"/><circle cx="2330.78" cy="118.84" r="10.19" style="fill:#bcb489"/><circle cx="2639.63" cy="97.54" r="10.08" style="fill:#bcb489"/><circle cx="2683.67" cy="262.98" r="10.08" style="fill:#bcb489;opacity:0.32"/><circle cx="2611.03" cy="514.21" r="11.42" style="fill:#bcb489;opacity:0.32"/><circle cx="2451.77" cy="837.83" r="10.49" style="fill:#bcb489;opacity:0.61"/><circle cx="2316.59" cy="807.58" r="9.88" style="fill:#bcb489;opacity:0.32"/><circle cx="2231.4" cy="807.58" r="9.1" style="fill:#bcb489"/><circle cx="1910.41" cy="1235.82" r="12.04" style="fill:#bcb489;opacity:0.24"/><circle cx="2101.77" cy="1133.35" r="8.64" style="fill:#bcb489"/><circle cx="2330.17" cy="1055.88" r="10.19" style="fill:#bcb489"/><circle cx="2386.34" cy="1264.22" r="11.73" style="fill:#bcb489;opacity:0.61"/><circle cx="991.27" cy="1533.04" r="11.42" style="fill:#bcb489"/><circle cx="884.48" cy="1745.7" r="10.7" style="fill:#bcb489"/><circle cx="1227.69" cy="1490.55" r="11.52" style="fill:#bcb489"/><circle cx="1566.38" cy="1509.48" r="8.44" style="fill:#bcb489;opacity:0.61"/><circle cx="794.98" cy="2335.82" r="10.8" style="fill:#bcb489"/><circle cx="1085.41" cy="2215.14" r="12.04" style="fill:#bcb489"/><circle cx="1239.73" cy="2211.75" r="15.43" style="fill:#bcb489"/><circle cx="1095.6" cy="2035.82" r="8.64" style="fill:#bcb489"/><circle cx="1535.51" cy="1996.32" r="9.47" style="fill:#bcb489"/><circle cx="1661.85" cy="2085.41" r="11.73" style="fill:#bcb489;opacity:0.61"/><circle cx="1983.66" cy="1817.51" r="10.08" style="fill:#bcb489;opacity:0.61"/><circle cx="2132.64" cy="1717.51" r="8.44" style="fill:#bcb489;opacity:0.27"/><circle cx="2082.64" cy="1677.39" r="9.88" style="fill:#bcb489"/><circle cx="2117" cy="2014.63" r="8.85" style="fill:#bcb489"/><circle cx="1857.53" cy="2497.14" r="10.7" style="fill:#bcb489"/><circle cx="1911.65" cy="2623.48" r="13.58" style="fill:#bcb489"/><circle cx="819.36" cy="2879.52" r="13.58" style="fill:#bcb489"/><circle cx="1327.85" cy="2805.12" r="9.26" style="fill:#bcb489;opacity:0.37"/><circle cx="2116.79" cy="1407.43" r="10.91" style="fill:#bcb489"/><circle cx="2412.88" cy="1614.22" r="11.93" style="fill:#bcb489"/><circle cx="2530.17" cy="1878.62" r="9.05" style="fill:#bcb489;opacity:0.61"/><circle cx="2590.04" cy="1849.2" r="9.26" style="fill:#bcb489"/><circle cx="2402.85" cy="2095.39" r="12.35" style="fill:#bcb489"/><circle cx="2831.71" cy="2415.15" r="12.35" style="fill:#bcb489"/><circle cx="3205.92" cy="2922.86" r="12.35" style="fill:#bcb489"/><circle cx="3626.78" cy="2057.12" r="12.04" style="fill:#bcb489"/><circle cx="3289.92" cy="2439.53" r="12.04" style="fill:#bcb489;opacity:0.61"/><circle cx="3478.01" cy="1895.08" r="9.57" style="fill:#bcb489"/><circle cx="3791.59" cy="1878.72" r="8.64" style="fill:#bcb489"/><circle cx="4144.37" cy="1692.61" r="9.05" style="fill:#bcb489;opacity:0.61"/><circle cx="3339.22" cy="1559.69" r="11.93" style="fill:#bcb489;opacity:0.61"/><circle cx="3041.8" cy="1933.58" r="11.93" style="fill:#bcb489;opacity:0.61"/><circle cx="669.46" cy="3051.38" r="11.93" style="fill:#bcb489;opacity:0.37"/><circle cx="3164.33" cy="1240.35" r="9.47" style="fill:#bcb489"/><circle cx="3361.86" cy="1249.81" r="9.05" style="fill:#bcb489;opacity:0.37"/><circle cx="2894.78" cy="1111.13" r="9.88" style="fill:#bcb489;opacity:0.37"/><circle cx="3542.11" cy="2820.76" r="9.88" style="fill:#bcb489;opacity:0.37"/><circle cx="3019.98" cy="756.81" r="9.88" style="fill:#bcb489;opacity:0.61"/><circle cx="3099.61" cy="654.03" r="11.42" style="fill:#bcb489"/><circle cx="2818.65" cy="370.18" r="9.47" style="fill:#bcb489;opacity:0.61"/><circle cx="3105.02" cy="487.67" r="9.88" style="fill:#bcb489"/><circle cx="3425.23" cy="161.33" r="10.7" style="fill:#bcb489"/><circle cx="1922.45" cy="208.24" r="10.08" style="fill:#bcb489;opacity:0.32"/><circle cx="114.57" cy="1859.99" r="9.47" style="fill:#bcb489;opacity:0.61"/><circle cx="400.94" cy="1977.48" r="9.88" style="fill:#bcb489"/><circle cx="721.16" cy="1651.14" r="10.7" style="fill:#bcb489"/><circle cx="3706.41" cy="226.56" r="10.34" style="fill:#bcb489"/><circle cx="3808.72" cy="244.15" r="7.56" style="fill:#bcb489;opacity:0.32"/><circle cx="3986.96" cy="316.53" r="8.02" style="fill:#bcb489"/><circle cx="4088.66" cy="361.43" r="10.03" style="fill:#bcb489;opacity:0.61"/><circle cx="4196.53" cy="262.98" r="16.67" style="fill:#bcb489"/><circle cx="4175.54" cy="552.18" r="9.57" style="fill:#bcb489"/><circle cx="4409.5" cy="496.62" r="8.49" style="fill:#bcb489;opacity:0.35000000000000003"/><circle cx="4537.89" cy="326.56" r="8.44" style="fill:#bcb489;opacity:0.61"/><circle cx="4479.25" cy="276.56" r="12.04" style="fill:#bcb489;opacity:0.37"/><circle cx="4786.66" cy="252.79" r="11.73" style="fill:#bcb489"/><circle cx="4928.32" cy="100.63" r="12.04" style="fill:#bcb489"/><circle cx="4955.18" cy="335.51" r="11.11" style="fill:#bcb489;opacity:0.37"/><circle cx="4982.03" cy="466.68" r="13.27" style="fill:#bcb489;opacity:0.61"/><circle cx="4804.56" cy="861.13" r="12.35" style="fill:#bcb489;opacity:0.61"/><circle cx="4616.18" cy="1051.05" r="9.26" style="fill:#bcb489;opacity:0.31"/><circle cx="466.39" cy="1533.04" r="8.44" style="fill:#bcb489;opacity:0.61"/><circle cx="249.31" cy="2436.12" r="11.73" style="fill:#bcb489"/><circle cx="417.83" cy="2518.84" r="11.11" style="fill:#bcb489;opacity:0.37"/><circle cx="934.57" cy="2597.84" r="11.11" style="fill:#bcb489;opacity:0.61"/><circle cx="444.68" cy="2650.01" r="13.27" style="fill:#bcb489;opacity:0.61"/><circle cx="764.57" cy="2399.55" r="13.27" style="fill:#bcb489;opacity:0.33"/><circle cx="499.93" cy="2745.69" r="10.19" style="fill:#bcb489"/><circle cx="718.57" cy="2878.58" r="9.26" style="fill:#bcb489"/><circle cx="4431" cy="1192.61" r="8.64" style="fill:#bcb489"/><circle cx="4019.89" cy="1129.24" r="12.35" style="fill:#bcb489;opacity:0.61"/><circle cx="3943.75" cy="1064.21" r="11.11" style="fill:#bcb489"/><circle cx="3756.92" cy="881.5" r="10.7" style="fill:#bcb489;opacity:0.35000000000000003"/><circle cx="3563.5" cy="799.19" r="11.52" style="fill:#bcb489;opacity:0.61"/><circle cx="4055.69" cy="2505.58" r="11.52" style="fill:#bcb489;opacity:0.36"/><circle cx="4613.97" cy="2228.72" r="10.8" style="fill:#bcb489"/><circle cx="4314.05" cy="1970.16" r="9.72" style="fill:#bcb489"/><circle cx="4245.14" cy="1941.76" r="8.18" style="fill:#bcb489"/><circle cx="4344.53" cy="1848.63" r="9.41" style="fill:#bcb489;opacity:0.61"/><circle cx="4464.59" cy="1822.24" r="10.34" style="fill:#bcb489;opacity:0.61"/><circle cx="4525.93" cy="1994.93" r="11.03" style="fill:#bcb489"/><circle cx="4971.74" cy="1839.11" r="11.93" style="fill:#bcb489"/><circle cx="4911.86" cy="1334.79" r="11.52" style="fill:#bcb489;opacity:0.61"/><circle cx="4636.97" cy="2774.33" r="11.52" style="fill:#bcb489"/><circle cx="4715.15" cy="1309.48" r="11.93" style="fill:#bcb489;opacity:0.31"/><circle cx="119.44" cy="373.52" r="12.04" style="fill:#bcb489"/><circle cx="146.29" cy="608.4" r="11.11" style="fill:#bcb489;opacity:0.37"/><circle cx="663.04" cy="687.4" r="11.11" style="fill:#bcb489;opacity:0.61"/><circle cx="173.15" cy="739.57" r="13.27" style="fill:#bcb489;opacity:0.61"/><circle cx="493.04" cy="489.11" r="13.27" style="fill:#bcb489;opacity:0.33"/><circle cx="228.39" cy="835.25" r="10.19" style="fill:#bcb489"/><circle cx="571.23" cy="1232.88" r="10.19" style="fill:#bcb489"/><circle cx="173.15" cy="1146.37" r="12.35" style="fill:#bcb489;opacity:0.61"/><circle cx="628.71" cy="1333.2" r="12.35" style="fill:#bcb489;opacity:0.61"/><circle cx="447.04" cy="968.14" r="9.26" style="fill:#bcb489"/><circle cx="102.98" cy="1607.68" r="11.52" style="fill:#bcb489;opacity:0.61"/><circle cx="4472.46" cy="1649.71" r="11.11" style="fill:#bcb489"/><circle cx="3954.04" cy="1385.2" r="12.35" style="fill:#bcb489"/><circle cx="3640.05" cy="1439.52" r="13.58" style="fill:#bcb489;opacity:0.35000000000000003"/></g><g id="Layer_3" data-name="Layer 3"><path d="M1062.7,2294.46a1414.25,1414.25,0,0,0,19.81,236.42c95.63,564.27,527.73,1014.08,1082.71,1135.81q26.39,5.78,53.16,10.58a1414.37,1414.37,0,0,0,249.16,22c477.76,0,899.82-238.52,1153.64-603a1403.72,1403.72,0,0,0,99.51-1437.41q-21.74-42.87-46.35-84A1405.71,1405.71,0,0,0,3531,1376.46l0,0c-257.61-298.12-638.48-486.81-1063.42-486.81-499.26,0-937.69,260.43-1186.82,652.88C1142.63,1759.92,1062.7,2017.84,1062.7,2294.46Z" style="fill:#f9e380"/><path d="M1082.51,2530.88c95.63,564.27,527.73,1014.08,1082.71,1135.81-1.87-4.28-3.77-8.48-6.7-11.44-4.23,0-8.19.32-12.13.32-15.24,0-27.69-2.53-29.67-15.81,24.29-15.24,68.08-7.61,70.61-36.68,1.7-20.07-15.81-31.3-30.22-45.7-8.19-8.19-15.27-17.4-16.93-29.82-8.19-4.8-21.19-4.58-28.81-10.22,9.89-21.48,20.9-28.95,32.75-28.95,33.61,0,73.72,60.38,105.92,64.41h.55c8.19,0,14.15-5.1,19.78-9.35s11-9.32,18.06-9.32c4.54,0,9.89,1.67,16.39,6.21,4.51,8.74,2,19.21,0,28.81,27.11,21.45,72.31,25.13,96.57,49.71-6.76,16.65-23.14,20.33-43.47,20.33-15.27,0-32.75-2-50.57-2.27-23.43-.26-30.19-24.55-46.86-28.52a100.91,100.91,0,0,0-22.6-2.82c-32.75,0-66.07,16.36-63.54,44.62,7.62,15.53,43.79,2.82,44.33,26-.09.37-.17.75-.29,1.09a1414.37,1414.37,0,0,0,249.16,22c477.76,0,899.82-238.52,1153.64-603,.66-1.73,1.41-3.42,2.21-5a18.07,18.07,0,0,1-5.38.57c-7.91,0-11.3-4.8-13-10.75-4.51-55.06,21.45-79.64,54.8-96.58,8.74-48.88,65.24-74.26,75.67-122.85,6.79-30.76-8.16-59.86,2.53-96.58,5.66-3.11,8.77-9,15.84-10.44a24.52,24.52,0,0,1,4.8-.32,51,51,0,0,1,9.57,1.15,72.58,72.58,0,0,0,7.36.86,15.18,15.18,0,0,0,6.78-1.7c12.65-34,18.46-74.64,42.61-97.06a1415,1415,0,0,0-4-740.95c-9.95-9.4-18.31-19.35-30.71-23.63-8.77-59.86-34.47-103.07-60.15-146.29,14.35-31.11-4.63-54.74-9.46-87.83q-21.74-42.87-46.35-84c-7.1-5.35-13.37-10.72-17.36-16.24-6.21-9-7.62-20.36-13-28.55-14.69-23.14-40.4-32.49-49.42-52.24-25.42-3.11-39.27-18.4-49.71-36.49,33.24-24.9-18.08-41.52-13.92-64.95-257.61-298.12-638.48-486.81-1063.42-486.81-499.26,0-937.69,260.43-1186.82,652.88-4.6,17-3.48,32.43,8.54,45,24.3-12.13,49.45-28.81,70.33-49.42,9.06-9,13.28-23.14,23.75-31.34,9-7.62,24.27-10.44,33.87-18.37,12.42-10.44,16.68-26.54,28.52-39,22.31-23.14,53.94-42.64,87.84-42.64,2.82,0,5.92.26,8.77.55,0,22.31-21.19,24.32-33.61,34.21-15.84,11.87-25.42,28-47.18,36.46-8.45,3.11-24,2-34.16,7.65-22.89,13.57-13.83,47.52-18.08,73.23-6.78,41.23-41.52,68.8-73.14,86.59-17.8,30.22,4.23,58,15.53,81.13-6.5,18.08-24,40.06-10.44,63.41h1.41c16.1,0,20.61-13.44,35.31-13.7,5.09,0,9.86,1.86,14.69,4.39s9.57,5.12,14.38,5.12c3.39,0,6.79-1.4,10.18-5.09,2-16.36-24.55-17.1-28.81-33.77-4.51-17.25,1.12-37.42,20.9-41.67,7.33,3.71,4,18.69,15.27,18.69h.26c13-5.64,20.33-18.13,28.81-29.14,4.26-41.8,4.51-87.62,23.43-112.75,10.46-13.31,25.42-17.05,36.72-26.08,12.45-9.89,25.16-32.55,41.8-36.58h1.7c5.09,0,10.18,2.13,15.24,4.4,4.83,2,9.89,4.4,15,4.4a26.84,26.84,0,0,0,4.51-.52c18.63-22.31,29.67-43.77,46.89-65.51,11.27-13.86,25.13-22.22,36.72-33.8,13-13,20.61-34.29,39-39.09,10.18-2.27,20.9-2,31.63-2h7.65c16.07,0,31.91-1.75,44.59-13.63-2-9.57-3.94-19.18-2.53-31.63,6.78-11.85,27.11-24.84,44-24.84,10.75,0,20.07,5.38,23.72,19.78-.55,12.71-12.13,13.83-10.44,28.52,3.94-.32,7.62-.32,11.59-.32,13.83,0,27.4,1.73,40.65,3.13,13.28,1.67,26.54,3.11,40.11,3.11a117.12,117.12,0,0,0,17.22-.86c33.9,46.06,89.53,70.9,153.91,86.43-.55,12.71-.55,25.13,5.38,31.34,37.29,3.39,63.83,17.8,83.32,39.27-5.38,13.54-9.32,37.55,7.91,41.52,19.49-26.54,39-66.39,26.25-109.6,6.78-13.83,20-21.45,20.9-41.8,28.52-49.39,138.67-17.77,169.75-64.95-6.78-35.28-48.59-35.28-60.18-65.5,17.8-13.57,48.59-14.15,52.24-41.8-5.64-15.24-32.49-9.32-34.16-28.81a25.42,25.42,0,0,1,9-1.41A75.15,75.15,0,0,1,2411,1217a85.64,85.64,0,0,0,15,1.7,37.34,37.34,0,0,0,11.87-2c.55,12.71-11.3,13.28-7.62,28.81,20.61,4.8,36.14,14.12,57.33,18.37,13.25-6,19.18-19.23,38.67-19.23a49.85,49.85,0,0,1,8.48.86c8.74,8.19,5.92,28.81,15.53,36.43a42.61,42.61,0,0,0,11.3,1.7c20.33,0,34.73-15.84,51.41-22.34,2.82-18.63-17.8-13.83-13.28-34.19,13-17.48,53.39-7.4,73.14-18.12,15.24,22.89,31.34,45.13,57.62,57.26-20.07,20.9-6.78,62.25-34.18,78.35-17.8-9.32-38.67-15.6-64.95-16.18-9.89-5.09-8.48-21.61-22.89-21.61h-.83c-7.36,31.41,8.48,59.76,13.28,86.87,57,20.87,127.37,30,138.38,97.25,8.19,7,27.95,3.39,31.05,15.81,2.27,14.12-6.5,17.77-5.09,31.34,6.53,15.81,29.1,15.81,23.43,44.08,13.86,7,23.46,18.63,39.27,23.72,9.6-14.12,17.22-29.67,20.61-49.71,11.87-2.82,23.43-6.21,31.63-13-3.65-12.13-6.5-24.87-5.35-41.8,7.62-5.64,15.24-8.19,22.31-8.19,22.6,0,41.23,24.29,45.46,44.91,13-.83,26.54-2.24,38.7-2.24,27.11,0,46.61,7,34.73,43.76,7.91,16.68,24.3,14.12,39,26.28,13.83,11.27,22.31,37.26,39.27,41.78a34.21,34.21,0,0,0,7.62.86,95.43,95.43,0,0,0,15.27-1.7,84.76,84.76,0,0,1,16.91-2,24,24,0,0,1,4.54.29c7.62.83,16.65,8.74,26,10.15a51.38,51.38,0,0,0,9.34.86,65.07,65.07,0,0,0,10.72-.86c3.94-.26,7.36-.83,10.44-.83a23,23,0,0,1,6.24.83c13.25,5.66,15.24,22.05,26,34.19,41.23,9.32,87.83,23.43,130.47,39.25,13.57,4.8,23.72,17.22,36.72,20.61a11.47,11.47,0,0,0,4.51.58,54,54,0,0,0,6.78-.58,67.92,67.92,0,0,1,7.33-.55,24.5,24.5,0,0,1,4.8.55c12.71,4.54,17.51,15.84,31.34,15.84,10.18-.29,19.23-9.89,28.84-13.28,16.36-5.38,33-6.21,46.86-15.27,14.4,2.85,12.71,21.76,28.81,23.17,11-51.12-20.33-82.17-39.27-112.13,13.28-16.65,5.12-40.65,2.56-62.68,6.5-10.18,17.22-16.13,31.34-18.37,4.23,7.36,1.7,20.9,7.91,26.28,17,5.92,44.62,7.33,49.71,28.81,3.11,13.54-9,29.93-10.44,44-2.56,26,2,52.24,12.13,72.86,11,21.45,28.23,36.72,50.54,39.53,1.44,9.6,7.07,15.53,5.09,28.81-12.71,5.64-27.69,8.48-41.8,13,1.15,20.9-13.25,26.54-20.61,39,8.48,17.54,18.37,33.61,39,39.27,10.15-5.38,11.85-19.49,20.9-26,23.43,8.48,69.75,14.12,49.42,49.71a18.92,18.92,0,0,1-9.32,2.24,36.13,36.13,0,0,1-10.75-2c-3.39-.86-6.79-2-10.18-2a10.32,10.32,0,0,0-6.18,1.7c-14.4,3.94-7.07,29.1-20.93,33.61-20.87,7.62-36.69-.86-52,10.44-22.6,16.93-20.33,82.17-7.91,102,15,24.58,42.64,16.39,52,39.27-8.48,22.6-28.26,66.62-5.09,88.67,15.24-13.28,17.77-39.53,28.81-57.62,13,2,24.27,5.35,33.9,10.47,4.51,22.57,13,41.2,28.49,52.53,22.31-22,4.54-53.68,5.38-78.23,13.28,1.41,23.17,6.21,33.9,10.15,13.57,28.55,24.84,75.13,13.25,107-10.72-6.21-25.42-11.3-38.67-11.3-12.45,0-23.72,4.51-29.38,16.68,0,15.53,14.69,16.93,15.53,31.34-7.62,13.25-9,32.49-26,36.72-6.78-53.39-49.14-71.19-68.08-112.39-15.24,19.18,4.8,35.28,7.94,52-7.07,16.68-19.21,27.66-41.52,28.78,3.65,48.3-5.09,110.43-49.14,110.43a62,62,0,0,1-18.95-3.11c0-34.44-52-48.85-57.3-78.49-3.13-17,10.72-36.17,18.34-54.8a68.84,68.84,0,0,0,7.33.58c37,0,55.06-41.55,31.63-68.34-14.69,1.41-27.37,2.53-39,2.53-17.22,0-32.49-2.53-49.71-10.47-11.85,3.68-11,20.07-21.16,26-10.18-5.92-20.64-11.3-36.46-11.3a66.21,66.21,0,0,0-10.15.86c-10.75-17.22-27.14-28.52-23.75-60.15a25.88,25.88,0,0,0-13.83-4.26c-10.72,0-20,7.62-33,9.6-11-7.62-.29-27.66-5.09-36.43-14.4-13.83-51.09-4.51-65.5-18.34,10.15-23.43,14.4-65.81-19.49-65.81a24.77,24.77,0,0,0-6.5.57c-8.48-11.87-16.1-24-23.43-36.74-.29-8.74,13.54-11.27,5.06-20.87a35,35,0,0,0-5.35-.29c-9.6,0-18.66,3.68-28.26,7.33-9.86,3.39-20,7.07-32.46,7.07a54.21,54.21,0,0,1-9.6-.86c-7.33-12.42-20.9-17.19-37-17.19a114.67,114.67,0,0,0-28.52,3.94c5.92,42.93-13,78.78-7.62,112.42,1.41,8.74,10.44,18.63,13,28.78,9.6,36.14,23.14,56.5,28.78,88.7,2.56,13.54-3.94,26.54,7.94,39,6.5-5.92,11.56-8.19,16.1-8.19,9.6,0,16.93,9.6,30.76,10.72a23.24,23.24,0,0,0,4.51.32c11.87,0,24.87-4,38.7-8.19,14.12-4.54,28.81-8.77,44.33-8.77a58.84,58.84,0,0,1,14.12,1.41c9.34,12.42,18.92,20,35.88,20a74,74,0,0,0,16.65-2c14.12,9.92,15.81,37,7.91,54.8,22.89,43.21,33.35,99.11,83.32,114.95,7,27.95,32.2,76.79-10.44,83.58-17.54-8.74-7.36-32.46-2.56-47.15-11.59-5.64-22-8.77-32.49-8.77a54.9,54.9,0,0,0-24.84,6.21c-12.42,6.24-14.12,23.46-26.28,26.28a27,27,0,0,1-4.49.57c-4.83,0-8.77-2-12.74-4-4.23-2-8.45-3.94-13.54-3.94a20.21,20.21,0,0,0-8.45,2c13.54,21.76,8.45,47.18-13,47.18-29.1,0-20.07-32.78-7.94-52.24-5.35-6.79-10.72-8.48-17.22-8.48-6.76,0-14.4,2-24.27,3.11-7.65-16.1-28-28.23-39.27-44.33-7-9.89-18.92-34.18-18.34-44.33.57-9.06,12.71-12.45,15.53-26.28,2-7.07-1.7-16.36,0-20.61,5.09-11.87,23.72-17.51,23.72-31.34-27.95-5.38-36.71-29.64-67.77-31.63-12.16,9.32-12.16,29.93-23.72,39.25-13.86-15.81-38.41-39.53-65.24-39.53-1.7,0-3.39.29-5.09.29-13.28,1.7-17.25,16.1-31.63,16.1-.86,0-1.7-.29-2.56-.29-10.44-4.26-9.31-20-13-31.34-14.12-16.07-32.17-16.61-33.58-36.36-2.56-26.28,23.14-25.09,23.14-44.58,0-13.54-27.95-41.09-39-43.91a40.27,40.27,0,0,0-9.92-1.13c-19.75,0-40.08,11.74-53.07,15h-1.12c-7.33,0-13.28-2.55-19.21-4.5-6.21-2.27-11.87-4.82-18.37-4.82a9.49,9.49,0,0,0-2.82.29c-12.71,1.7-26.25,18.34-39.25,18.34a8.61,8.61,0,0,1-2.56-.26c-13.25-2.27-6.76-11.3-18.34-26-11-14.4-28.52-24.29-31.34-41.8-8.19-2.24-13.57-3.39-20.35-3.39a83.66,83.66,0,0,0-11,.86c-6.76,6.79-4.23,23.43-13,28.81-18.66-4.8-18.37-28.81-23.46-47.18-18.34-18.06-29.35-43.47-39.25-70.32-24.58-6.21-49.14-6.52-47.15-31.62,1.67-16.68,16.36-12.43,23.69-28.53-5.35-17.22-15.5-29.93-26.25-41.8-24.29,18.08,2.82,70.62-23.14,94a19.88,19.88,0,0,1-4,.3c-1.41,0-2.82-.27-3.94-.27h-4.54c-4.77,0-9,.56-11.27,2.54-29.1,29.64,16.36,42.91,13.25,67.75-2.24,17.22-27.66,17.8-39.25,26.28-19.49,14.12-30.79,52.5-54.8,60.15-16.65-6.21-41.2-11.26-61.56-11.26a70.7,70.7,0,0,0-11.59.87c-31.05,51.38,12.71,114.17,33.9,154-39,33,39.82,67.87-2.82,104.59a39.11,39.11,0,0,0-15.27-2.84c-9.89,0-18.92,3.9-27.66,7.29s-17.25,7.79-25.7,7.79h-1.7c-12.42-4-22.86-12.08-36.17-12.08H2302c-15.81,0-21.19,7.42-39,10.26-9.31-4.54-22.86-7.85-36.14-7.85-12.42,0-24.55,2.82-31.91,10.18a66.65,66.65,0,0,0,2.56,23.72,21.77,21.77,0,0,0,10.44,2.27,71.33,71.33,0,0,0,10.72-1.15,84.62,84.62,0,0,1,11-1.12c5.12,0,9.34,1.12,12.42,5.09,3.39,39.82-30.76,42.37-62.39,46.89-10.72,17.25-28.81,27.16-36.71,47.2,19.2,20.33,44.62,35.06,65.24,54.84,6.78-5.12,13.25-7,19.75-7,17.51,0,33.35,16,48.33,30.66,22.28,22,42.61,40.52,41.49,76h.29c20.07,0,17.22-22.88,36.43-23.71,16.1,16.1,37.55,27.38,44,44.05,4.83,11.85,10.75,41.23,7.94,59.86-3.11,24.58-28.55,42.67-23.46,68.08,3.39,16.1,24.87,25.39,41.8,44.33,6.5,7.33,8.77,16.93,13,20.9,17.77,15.24,41.77,14.4,46.89,31.34,2.82,8.19-2.85,21.45-2.56,28.81,1.67,22.31,16.1,45.48,2.56,67.79-27.14,11-47.47,29.07-65,49.68,8.74,25.42,6.21,49.13-15.81,54.8a29.27,29.27,0,0,1-7.07.83c-6.21,0-13.25-1.41-20.61-2.82s-15-2.83-22-2.83a39.3,39.3,0,0,0-13,1.93c-11.56,4.8-7.91,13.53-20.9,18.33a25.54,25.54,0,0,0-4.49-.38c-17.25,0-26,13.33-42.38,13.33h-3.68c-10.44,0-20-3.19-29.35-6.84-9.89-3.68-19.78-7.19-29.93-7.19a41,41,0,0,0-10.18,1.16c-.29,27.11,26.28,27.68,23.43,57.55,28.23,5.41,41.8,26,36.72,65.22-13,7.62-17.22,23-34.16,26.21H2224c-4.23,0-8.48-1.34-12.42-2.75-4-1.7-7.91-3.35-11-3.35-3.39,0-5.92,1.41-8.19,6.21-5.38,19.21,41.8,8.46,41.8,31.05a21.39,21.39,0,0,1-11,2.76c-4.54,0-8.77-1.25-13-2.69-4.8-1.41-9.6-3.06-15-3.06h-2.82c-14.12,2.42-23.72,14.64-36.43,15.76a64.21,64.21,0,0,1-7.33.81c-35,0-57.91-29.67-76.28-55.09,29.67-1.12,25.13-52.79,1.15-52.79a17.5,17.5,0,0,0-3.68.26c-24.29,5.12-6.21,37.58-7.91,52.53-1.15,8.77-11.3,17.22-10.46,25.7,1.15,12.71,18.66,18.08,15.81,34.18-16.36,12.42-50.26,7.07-68.05,18.34-7.91-7.88-18.63-10.15-30.22-10.15-5.64,0-11.56.55-17.48,1.12-1.15,0-2,.29-3.13.29a161.82,161.82,0,0,1-19.75,1.7c-6.5,0-12.71-.83-18.08-3.39-17.8-8.19-10.47-26.82-28.52-34.18a128.63,128.63,0,0,1-14.41.86c-45.2,0-66.93-23.43-77.11-58.16-17.22-19.23-48.85-24.29-57.59-52.27,2.24-40.65-3.68-81.88,18.34-117.48-6.76-9.6-20.9-17.77-36.14-17.77a35.51,35.51,0,0,0-13.28,2.27c-9.89,13.54,13,13.58,7.62,31.37-4.8,3.68-6.47,10.82-13,13.07-9.6,0-13.54-5.75-23.14-5.75a49.83,49.83,0,0,0-5.64.86c-10.18,15,3.65,43.6-13,55.68h-2.56c-18.34,0-23.43,12.37-34.16,20.25-13.83,0-22.31-6.23-33.61-8.48-13.28-30.5-26.83-60.43-52.53-78.23a3.54,3.54,0,0,0-1.7-.29c-7.91,0-11.3,5.09-18.92,5.38C1422.83,3058,1374,2987.1,1310.16,2932c-4.8-42.93-48-39.82-63-70.33-23.43-50-18.63-97.15-49.42-146.54-9.31-15-28.81-23.46-36.72-39-7.33-14.69-7.62-32.49-18.08-47.18-9.31-12.39-23.43-19.18-31.34-31.05C1098,2577.46,1094.24,2551.64,1082.51,2530.88Zm1320.89,50.37c-17.51,0-42.09-22.57-33.35-40.94,19.75,1.41,36.72,5.09,49.71,13.28C2421.45,2573.92,2413.54,2581.25,2403.39,2581.25Zm41.23-24.55c-4,0-8.48-.83-14.4-3.11,3.08-18.08,8.74-24,14.09-24,5.66,0,10.75,6.79,12.16,13.54C2457.59,2549.91,2454.77,2556.7,2444.62,2556.7Zm-414-1355.59c-7.36,21.51-21.19,35.88-36.46,49.74-17.77-9.32-25.7-28.24-47.15-34.19-18.92,3.11-24.27,17.24-39.25,23.74-22,9.34-48.3,5.91-72.88,13-18.63,5.38-41.49,24.84-57.3,39-17,14.69-25.7,37.58-47.18,44.66a38.1,38.1,0,0,1-11.85,1.45c-1.7,0-3.68-.27-5.66-.27h-5.64a49.48,49.48,0,0,0-13.28,1.39c-11,3.08-16.36,16.6-28.81,20.86a59.79,59.79,0,0,1-19.21,3.11c-11.3,0-22-3.09-35.56-5.62-13.28-20.64-.86-33.84,20.61-49.68,11.85-8.45,22.57-19.66,34.16-26.16,41.8-22.31,87.26-20.95,109.57-51.74,18.08-7.33,38.7.11,60.15-7.51,26.85-9.89,34.47-38.47,75.7-38.47h5.09c7.62,0,15.53,6.56,26.25,7.11,1.44.29,3.11-.51,4.8-.51a175.92,175.92,0,0,0,20.36-1.7c7.88-.83,16.07-2,24.27-2C2005.45,1187.28,2019.31,1190.12,2030.61,1201.11Zm402.14-99.39a53.85,53.85,0,0,0-15.53-2.53c-18.66,0-32.78,11.27-46.61,22.31-13.83,11.3-27.4,22.57-44.91,22.57a37.62,37.62,0,0,1-5.38-.26c-11-1.41-20.33-14.4-31.34-15.81a72.77,72.77,0,0,0-8.19-.58c-13.83,0-27.95,4.23-42.35,8.48-14.12,4.23-28.52,8.17-43.5,8.17a75,75,0,0,1-20.61-2.79c-5.06-20.07,1.7-37.87,20.61-42.09,1.15,0,2-.29,3.13-.29a30.27,30.27,0,0,1,9.86,2c3.11.55,6.21,1.41,9.6,1.41a16.61,16.61,0,0,0,3.68-.58c16.65-3.65,27.95-24.27,47.15-33.61,29.93-15,62.42-23.72,95.74-23.72a185.26,185.26,0,0,1,68.63,13.28C2436.69,1067.27,2436.69,1092.4,2432.75,1101.72ZM3448.3,1488.33c5.06,22,19.75,38.7,18.34,60.18-2,32.17-50,72-70.58,75.67a63.38,63.38,0,0,1-7.36.55c-25.13,0-53.1-19.75-68.34-26.8-32.2-15.27-66.93-25.44-78.23-49.42-7.33-15.27-3.94-27.4-10.44-36.74-22.6-31.88-87.26-52.79-65.52-107,4-8.77,15.53-10.44,21.19-18.37,12.13-18.06,13.25-43.18,28.81-54.77,15-.58,23.43-7.33,33.58-13,13,8.77,32.78,21.45,48.88,21.45,11.27,0,20.62-6.21,24.55-24,24.29,7.91,44.33,19.75,52,44.33,27.69,9,44.36,35,65.26,60.15C3462.41,1446.56,3482.17,1467.17,3448.3,1488.33ZM3727.59,1749c-2,6.79-6.21,12.75-13,12.75h-.83c-10.18,0-7.62-12.17-12.13-17.81-4.26,1.12-8.19,2.23-11.59,2.23-11.59,0-20.33-6.53-25.13-14.72a40.06,40.06,0,0,1-3.71-8.74c-3.36-11.85-.26-23.72,11-23.72,4.23,0,9.6,1.7,16.39,5.92,8.45,5.66,11.27,24.29,15.53,28.81,5.38,5.38,19.49,7.33,22.89,14.4A1.47,1.47,0,0,1,3727.59,1749Zm57.62,510.84c5.09,0,10.72,1.73,15.53,4,3.39,13-3.94,18.06-12.42,18.06a20.61,20.61,0,0,1-13.57-5.06C3772.49,2263.84,3778.13,2259.87,3785.2,2259.87Zm-357,35.83h2c23.46,0,19.75,31.69,18.08,59.63a14.37,14.37,0,0,0,6.5,1.44c4.23,0,8.17-2.52,12.42-4.79,4.51-2.53,9.32-4.75,15.53-4.75h2c9,14.5,22.6,24.91,36.72,34.22,1.12,21.19-11.59,28.79-28.81,31.64-13.86-13.83-23.14-36.59-44.33-47.05-1.41-.58-3.11-.29-4.8-.29h-2.56c-3.1,0-5.92-.27-8.16-2C3418.91,2352.75,3393.21,2295.7,3428.23,2295.7ZM1949.81,3498.53c4.8-11.85,12.45-34.16,26.28-34.16,3.94,0,8.19,1.67,13,5.64,2.53,20.07-12.45,22.6-15.84,36.46,27.14,15.78,62.71,7.59,86.14,26.25,11.33,8.74,14.4,22.86,26.28,31.34,6.21-9.32,16.65-13.83,26.82-13.83,7.36,0,14.69,2.24,20,6.76,7.07,5.66,11,15.27,7.65,27.69a26.17,26.17,0,0,1-10.18,2c-13,0-25.7-8.48-36.71-12.45a73.45,73.45,0,0,1-36.14,9.06c-26.28,0-51.69-12.42-70.87-24.58C1975.81,3536.94,1971.58,3508.71,1949.81,3498.53ZM1947,3360.44a44.69,44.69,0,0,1,6.79-1.17,66.82,66.82,0,0,1,7.33-.24c16.68,0,35.88,4.78,43.21,14.35a61.07,61.07,0,0,0,7.33.3c9.6,0,16.1-3.15,22.89-6.51,6.5-3.39,13.28-6.84,23.72-6.84h1.12c-4.23,24.16,12.71,36.53,28.84,48.95,1.12,13.57-2.56,21.92-7.93,28.36h-33.87c-10.47,0-20.61,1-28.81-1.32-11,1.72-6.21,18.23-15.81,24.67h-.57a8.81,8.81,0,0,1-8.19-5.25c-2.82-5.92-1.41-16.52-1.41-25C1972.7,3411.27,1958.3,3387.27,1947,3360.44Zm-684-431.77h1.41c17.8,0,26,10.08,37.84,16-.83,30.22,22.31,50,13.28,79h-.29C1277.41,3023.7,1256.8,2974.58,1263,2928.68Z" style="fill:#f6da6b"/></g><g id="Layer_4" data-name="Layer 4"><path d="M4918,3503v102h-39v-53h-48v31h-23v42h-38v-33h-55v-28h-38l.08-34.18-22.08-.09V3508h-28v21.69l-15.5,0,.33,34.27H4576v28h-8v28.54l-73.75-.61.29-165.93H4469v-81h-84v51h-43.22l-.36,190H4302v-95h-40V3303h-15v-55h-45v55h-36v72h-79.67l-29.47-8.45-41.86-12.9V3375h-59V3109l-78.8-82H3863V2840h-44l-.09-44.69-154.95.13v-74.08l-19-.08v-55.09l-47.89.28-.2,54.62-26.67-.1-.32,74.44H3491V3485h-87V2328.27L3286.7,2298l-5.33-138.47a41.73,41.73,0,0,0-2.45-73.94l-9.1-274.93-5.23-279.51-11.11,279.47-10.55,274.54a41.77,41.77,0,0,0-2.86,74.57l-3.94,137.17L3108,2331.13V3513H2995V2705h-8v-15h-11v15h-75v-75.17l-10,.17v75h-20v-10h-25v10h-85v-17h-10v-15h-15v32h-15v782.37l-7.17-13.69-52.59-101.05-28.25-.28V2517h-18v-8h-14v8h-28v-8h-29v8h-28v-51.25l-39,.18V2517h-84v908.36l-32.09.63-5.91.11v-62.85l-.89-768.25H2329v-8h-19v8h-9v-22h-20v22h-29v-8h-27v8h-21v-8h-19v8h-24v-30h-24v30h-18v832h-36V2109h-35v-70h-28v-56h-47.34L1953,1859l-19.67,124H1886v56h-33v70h-29V3130h-45V2524h-18v-21h-60v-52h-58v52h-60v21h-16v524h-24V2897h-96v123h-42V2730h-34v-78h-32v-29h-62v29h-48l-86,100.37V3018h-61.25L1058,2991V2545.13l-29-.47V2526H971v-34H948v34H877.56l.16-90.31-12.81-.31-.32,90.62H822v15.33l-28-.48V3050H760v152H738v376H668V3407H636V3281H555V3072H527v-23.91l-59-68.57V2932H432.67l.33-63.86-22.25.06.08-105.2H394.67l-.09,105.21L372,2868v64H336V2981l-49,57.14V3071H253v729H241v38H228V3451.33l-25.49-.31-33-80H152v-36.75l-49.37-.23-.38,37H79.67L47,3450H23v368H7V3446H0v727H5000V3503Z" style="fill:#00110e"/></g><g id="Layer_5" data-name="Layer 5"><polygon points="4803 3865 4803 3930 4705 3930 4705 3872 4641 3872 4641 3856 4609 3856 4609 3794 4538 3794 4538 3832 4502 3832 4502 3894 4462 3894 4462 3807 4425 3807 4425 3651 4126 3651 4126 3368 4090.43 3368 4061.15 3318 4047 3318 4047 3263 3941 3263 3941 3318 3924.65 3318 3899.68 3368 3869 3368 3869 3524 3799 3524 3799 3748 3708 3748 3708 3468 3691 3468 3691 3350 3657 3350 3657 2973 3642.57 2973 3610.17 2918 3473.67 2918 3446.04 2973 3429 2973 3429 3383 3355 3383 3355 3053 3213.5 3053 3124 3159.13 3124 3512 3097 3512 3097 3237 3068 3237 3068 3215 3006 3215 3006 3237 2982 3237 2982 2958 2940 2958 2940 2944 2899 2944 2899 2880 2835 2880 2835 2944 2799 2944 2799 2958 2757 2958 2757 3018 2723 3018 2723 2649 2695 2649 2695 2625 2581 2625 2581 2649 2489 2649 2489 2625 2375 2625 2375 2649 2353 2649 2353 3263 2315 3263 2315 2843 2053 2843 2053 3551 1976 3551 1976 3094 1920 3094 1920 3063 1790 3063 1790 3094 1735 3094 1735 3624 1635 3624 1635 2811 1541 2811 1541 2409 1473 2409 1473 2811 1380 2811 1380 3541 1306 3541 1306 3457 1186 3457 1186 3331 897 3331 897 3592 747 3592 747 3518 694 3518 694 3479 623 3479 623 3518 580 3518 580 3690 448 3690 448 3779 352 3779 352 3705 271 3705 271 3612 167 3612 167 3690 0 3690 0 5000 167 5000 187.21 5000 268.2 5000 271.2 5000 332.7 5000 352.2 5000 448.19 5000 467.69 5000 580.19 5000 583.19 5000 699.19 5000 746.68 5000 896.67 5000 924.66 5000 1175.66 5000 1186.16 5000 1280.65 5000 1306.15 5000 1379.65 5000 1420.14 5000 1604.63 5000 1634.63 5000 1735.13 5000 1795.13 5000 1898.62 5000 1976 5000 2053 5000 2160.62 5000 2232.57 5000 2315 5000 2353 5000 2473.43 5000 2686.08 5000 2723 5000 2757.09 5000 2816.57 5000 2974 5000 2981.57 5000 3018 5000 3097 5000 3249 5000 3249 4999 3348 4999 3348 5000 3429 5000 3468.92 5000 3505.54 5000 3657 5000 3708 5000 3708 4999 3799 4999 3799 5000 3868.54 5000 4001 5000 4110.98 5000 4125.98 5000 4425 5000 4502 5000 4516.51 5000 4538.5 5000 4570.17 5000 4593.51 5000 4600.5 5000 4609 5000 4640.67 5000 4653.98 5000 4704.98 5000 4803.03 5000 4827 5000 5000 5000 5000 3865 4803 3865" style="fill:#122b26"/><rect x="2098" y="2807" width="160.5" height="63.5" style="fill:#122b26"/><rect x="959" y="3261.67" width="29.33" height="94" style="fill:#122b26"/><rect x="1067" y="3303.67" width="29.33" height="52" style="fill:#122b26"/><rect x="3293.67" y="3009.27" width="36.67" height="77.73" style="fill:#122b26"/><rect x="3981" y="3221.25" width="22" height="77.73" style="fill:#122b26"/><rect x="3335.67" y="3317.33" width="109.44" height="102.67" style="fill:#122b26"/></g><g id="Layer_6" data-name="Layer 6"><rect x="4.66" y="4175.67" width="4995.34" height="755" style="fill:#001c17"/><rect x="33.5" y="3739.5" width="43" height="43" style="fill:#f9e380"/><rect x="489.75" y="3709.5" width="18" height="18" style="fill:#f9e380"/><rect x="546.75" y="3709.5" width="18" height="18" style="fill:#f9e380"/><rect x="461.25" y="3737.17" width="18" height="18" style="fill:#f9e380"/><rect x="518.25" y="3737.17" width="18" height="18" style="fill:#f9e380"/><rect x="546.75" y="3737.17" width="18" height="18" style="fill:#f9e380"/><rect x="461.25" y="3764.83" width="18" height="18" style="fill:#f9e380"/><rect x="489.75" y="3764.83" width="18" height="18" style="fill:#f9e380"/><rect x="461.25" y="3792.5" width="18" height="18" style="fill:#f9e380"/><rect x="546.75" y="3792.5" width="18" height="18" style="fill:#f9e380"/><rect x="518.25" y="3820.17" width="18" height="18" style="fill:#f9e380"/><rect x="546.75" y="3820.17" width="18" height="18" style="fill:#f9e380"/><rect x="461.25" y="3847.83" width="18" height="18" style="fill:#f9e380"/><rect x="489.75" y="3847.83" width="18" height="18" style="fill:#f9e380"/><rect x="518.25" y="3847.83" width="18" height="18" style="fill:#f9e380"/><rect x="489.75" y="3875.5" width="18" height="18" style="fill:#f9e380"/><rect x="546.75" y="3875.5" width="18" height="18" style="fill:#f9e380"/><rect x="461.25" y="3903.17" width="18" height="18" style="fill:#f9e380"/><rect x="489.75" y="3903.17" width="18" height="18" style="fill:#f9e380"/><rect x="518.25" y="3903.17" width="18" height="18" style="fill:#f9e380"/><rect x="461.25" y="3930.83" width="18" height="18" style="fill:#f9e380"/><rect x="489.75" y="3958.5" width="18" height="18" style="fill:#f9e380"/><rect x="518.25" y="3958.5" width="18" height="18" style="fill:#f9e380"/><rect x="4552.5" y="3871.33" width="18" height="18" style="fill:#f9e380"/><rect x="4609.5" y="3871.33" width="18" height="18" style="fill:#f9e380"/><rect x="4524" y="3899" width="18" height="18" style="fill:#f9e380"/><rect x="4581" y="3899" width="18" height="18" style="fill:#f9e380"/><rect x="4609.5" y="3899" width="18" height="18" style="fill:#f9e380"/><rect x="4524" y="3926.67" width="18" height="18" style="fill:#f9e380"/><rect x="4552.5" y="3926.67" width="18" height="18" style="fill:#f9e380"/><rect x="4524" y="3954.33" width="18" height="18" style="fill:#f9e380"/><rect x="4609.5" y="3954.33" width="18" height="18" style="fill:#f9e380"/><rect x="4581" y="3982" width="18" height="18" style="fill:#f9e380"/><rect x="4609.5" y="3982" width="18" height="18" style="fill:#f9e380"/><rect x="4524" y="4009.67" width="18" height="18" style="fill:#f9e380"/><rect x="4552.5" y="4009.67" width="18" height="18" style="fill:#f9e380"/><rect x="4581" y="4009.67" width="18" height="18" style="fill:#f9e380"/><rect x="4552.5" y="4037.33" width="18" height="18" style="fill:#f9e380"/><rect x="4609.5" y="4037.33" width="18" height="18" style="fill:#f9e380"/><rect x="4524" y="4065" width="18" height="18" style="fill:#f9e380"/><rect x="4552.5" y="4065" width="18" height="18" style="fill:#f9e380"/><rect x="4581" y="4065" width="18" height="18" style="fill:#f9e380"/><rect x="4518.5" y="3848.67" width="18" height="18" style="fill:#f9e380"/><rect x="4552.5" y="3817.83" width="18" height="18" style="fill:#f9e380"/><rect x="4581" y="3817.83" width="18" height="18" style="fill:#f9e380"/><rect x="1867.87" y="3141.09" width="32.78" height="32.78" transform="translate(3768.53 6314.96) rotate(180)" style="fill:#f9e380"/><rect x="1764.06" y="3141.09" width="32.78" height="32.78" transform="translate(3560.91 6314.96) rotate(180)" style="fill:#f9e380"/><rect x="1919.78" y="3191.48" width="32.78" height="32.78" transform="translate(3872.34 6415.73) rotate(180)" style="fill:#f9e380"/><rect x="1815.97" y="3191.48" width="32.78" height="32.78" transform="translate(3664.72 6415.73) rotate(180)" style="fill:#f9e380"/><rect x="1764.06" y="3191.48" width="32.78" height="32.78" transform="translate(3560.91 6415.73) rotate(180)" style="fill:#f9e380"/><rect x="1919.78" y="3241.86" width="32.78" height="32.78" transform="translate(3872.34 6516.51) rotate(180)" style="fill:#f9e380"/><rect x="1867.87" y="3241.86" width="32.78" height="32.78" transform="translate(3768.53 6516.51) rotate(180)" style="fill:#f9e380"/><rect x="1919.78" y="3292.25" width="32.78" height="32.78" transform="translate(3872.34 6617.29) rotate(180)" style="fill:#f9e380"/><rect x="1764.06" y="3292.25" width="32.78" height="32.78" transform="translate(3560.91 6617.29) rotate(180)" style="fill:#f9e380"/><rect x="1815.97" y="3342.64" width="32.78" height="32.78" transform="translate(3664.72 6718.06) rotate(180)" style="fill:#f9e380"/><rect x="1764.06" y="3342.64" width="32.78" height="32.78" transform="translate(3560.91 6718.06) rotate(180)" style="fill:#f9e380"/><rect x="1919.78" y="3393.03" width="32.78" height="32.78" transform="translate(3872.34 6818.84) rotate(180)" style="fill:#f9e380"/><rect x="1867.87" y="3393.03" width="32.78" height="32.78" transform="translate(3768.53 6818.84) rotate(180)" style="fill:#f9e380"/><rect x="1815.97" y="3393.03" width="32.78" height="32.78" transform="translate(3664.72 6818.84) rotate(180)" style="fill:#f9e380"/><rect x="1867.87" y="3443.42" width="32.78" height="32.78" transform="translate(3768.53 6919.61) rotate(180)" style="fill:#f9e380"/><rect x="1764.06" y="3443.42" width="32.78" height="32.78" transform="translate(3560.91 6919.61) rotate(180)" style="fill:#f9e380"/><rect x="1919.78" y="3493.8" width="32.78" height="32.78" transform="translate(3872.34 7020.39) rotate(180)" style="fill:#f9e380"/><rect x="1867.87" y="3493.8" width="32.78" height="32.78" transform="translate(3768.53 7020.39) rotate(180)" style="fill:#f9e380"/><rect x="1815.97" y="3493.8" width="32.78" height="32.78" transform="translate(3664.72 7020.39) rotate(180)" style="fill:#f9e380"/><rect x="1919.78" y="3544.19" width="32.78" height="32.78" transform="translate(3872.34 7121.17) rotate(180)" style="fill:#f9e380"/><rect x="1867.87" y="3594.58" width="32.78" height="32.78" transform="translate(3768.53 7221.94) rotate(180)" style="fill:#f9e380"/><rect x="1815.97" y="3594.58" width="32.78" height="32.78" transform="translate(3664.72 7221.94) rotate(180)" style="fill:#f9e380"/><rect x="4358.61" y="3680.9" width="32.78" height="32.78" transform="translate(8750 7394.58) rotate(180)" style="fill:#f9e380"/><rect x="4306.7" y="3680.9" width="32.78" height="32.78" transform="translate(8646.19 7394.58) rotate(180)" style="fill:#f9e380"/><rect x="4254.8" y="3680.9" width="32.78" height="32.78" transform="translate(8542.38 7394.58) rotate(180)" style="fill:#f9e380"/><rect x="4358.61" y="3731.29" width="32.78" height="32.78" transform="translate(8750 7495.36) rotate(180)" style="fill:#f9e380"/><rect x="4888.2" y="3888.4" width="32.78" height="32.78" style="fill:#f9e380"/><rect x="4940.11" y="3888.4" width="32.78" height="32.78" style="fill:#f9e380"/><rect x="4836.3" y="3938.79" width="32.78" height="32.78" style="fill:#f9e380"/><rect x="4306.7" y="3781.68" width="32.78" height="32.78" transform="translate(8646.19 7596.14) rotate(180)" style="fill:#f9e380"/><rect x="4254.8" y="3781.68" width="32.78" height="32.78" transform="translate(8542.38 7596.14) rotate(180)" style="fill:#f9e380"/><rect x="109" y="3739.5" width="43" height="43" style="fill:#f9e380"/><rect x="184.5" y="3739.5" width="43" height="43" style="fill:#f9e380"/><rect x="260" y="3739.5" width="43" height="43" style="fill:#f9e380"/><rect x="927.76" y="3377.5" width="43" height="43" style="fill:#f9e380"/><rect x="1003.26" y="3377.5" width="43" height="43" style="fill:#f9e380"/><rect x="1078.76" y="3377.5" width="43" height="43" style="fill:#f9e380"/><rect x="927.76" y="3492.17" width="43" height="43" style="fill:#f9e380"/><rect x="1003.26" y="3492.17" width="43" height="43" style="fill:#f9e380"/><rect x="1078.76" y="3492.17" width="43" height="43" style="fill:#f9e380"/><rect x="927.76" y="3606.83" width="43" height="43" style="fill:#f9e380"/><rect x="1003.26" y="3606.83" width="43" height="43" style="fill:#f9e380"/><rect x="1078.76" y="3606.83" width="43" height="43" style="fill:#f9e380"/><rect x="927.76" y="3721.5" width="43" height="43" style="fill:#f9e380"/><rect x="1003.26" y="3721.5" width="43" height="43" style="fill:#f9e380"/><rect x="1078.76" y="3721.5" width="43" height="43" style="fill:#f9e380"/><rect x="927.76" y="3836.17" width="43" height="43" style="fill:#f9e380"/><rect x="1003.26" y="3836.17" width="43" height="43" style="fill:#f9e380"/><rect x="1078.76" y="3836.17" width="43" height="43" style="fill:#f9e380"/><rect x="927.76" y="3950.83" width="43" height="43" style="fill:#f9e380"/><rect x="1003.26" y="3950.83" width="43" height="43" style="fill:#f9e380"/><rect x="1078.76" y="3950.83" width="43" height="43" style="fill:#f9e380"/><rect x="3445.11" y="3009.27" width="43" height="43" style="fill:#f9e380"/><rect x="3520.61" y="3009.27" width="43" height="43" style="fill:#f9e380"/><rect x="3596.11" y="3009.27" width="43" height="43" style="fill:#f9e380"/><rect x="3520.61" y="3123.94" width="43" height="43" style="fill:#f9e380"/><rect x="3596.11" y="3123.94" width="43" height="43" style="fill:#f9e380"/><rect x="3445.11" y="3238.61" width="43" height="43" style="fill:#f9e380"/><rect x="3520.61" y="3238.61" width="43" height="43" style="fill:#f9e380"/><rect x="3471.11" y="3353.27" width="43" height="43" style="fill:#f9e380"/><rect x="3596.11" y="3353.27" width="43" height="43" style="fill:#f9e380"/><rect x="3460.11" y="3467.94" width="43" height="43" style="fill:#f9e380"/><rect x="3542.11" y="3467.94" width="43" height="43" style="fill:#f9e380"/><rect x="3025.86" y="3284.88" width="43" height="43" style="fill:#f9e380"/><rect x="3025.86" y="3419" width="43" height="43" style="fill:#f9e380"/><rect x="3025.86" y="3553.12" width="43" height="43" style="fill:#f9e380"/><rect x="3025.86" y="3687.23" width="43" height="43" style="fill:#f9e380"/><rect x="3025.86" y="3821.35" width="43" height="43" style="fill:#f9e380"/><rect x="3488.11" y="3582.61" width="43" height="43" style="fill:#f9e380"/><rect x="3596.11" y="3582.61" width="43" height="43" style="fill:#f9e380"/><rect x="2403.26" y="2697.05" width="43" height="43" style="fill:#f9e380"/><rect x="2478.76" y="2697.05" width="43" height="43" style="fill:#f9e380"/><rect x="2554.26" y="2697.05" width="43" height="43" style="fill:#f9e380"/><rect x="2403.26" y="2811.72" width="43" height="43" style="fill:#f9e380"/><rect x="2554.26" y="2811.72" width="43" height="43" style="fill:#f9e380"/><rect x="2403.26" y="2926.38" width="43" height="43" style="fill:#f9e380"/><rect x="2478.76" y="2926.38" width="43" height="43" style="fill:#f9e380"/><rect x="2554.26" y="2926.38" width="43" height="43" style="fill:#f9e380"/><rect x="2403.26" y="3041.05" width="43" height="43" style="fill:#f9e380"/><rect x="2478.76" y="3041.05" width="43" height="43" style="fill:#f9e380"/><rect x="2554.26" y="3041.05" width="43" height="43" style="fill:#f9e380"/><rect x="2403.26" y="3155.72" width="43" height="43" style="fill:#f9e380"/><rect x="2478.76" y="3155.72" width="43" height="43" style="fill:#f9e380"/><rect x="2403.26" y="3270.38" width="43" height="43" style="fill:#f9e380"/><rect x="2554.26" y="3270.38" width="43" height="43" style="fill:#f9e380"/><rect x="2629.76" y="2811.72" width="43" height="43" style="fill:#f9e380"/><rect x="2629.76" y="2926.38" width="43" height="43" style="fill:#f9e380"/><rect x="2629.76" y="3041.05" width="43" height="43" style="fill:#f9e380"/><rect x="2629.76" y="3155.72" width="43" height="43" style="fill:#f9e380"/><rect x="2629.76" y="3270.38" width="43" height="43" style="fill:#f9e380"/><rect x="1407.67" y="2848.22" width="69.33" height="69.33" style="fill:#f9e380"/><rect x="1537.67" y="2967.55" width="69.33" height="69.33" style="fill:#f9e380"/><rect x="2780.21" y="3050.38" width="33.67" height="33.67" style="fill:#f9e380"/><rect x="2823.55" y="3050.38" width="33.67" height="33.67" style="fill:#f9e380"/><rect x="2866.88" y="3050.38" width="33.67" height="33.67" style="fill:#f9e380"/><rect x="2910.21" y="3050.38" width="33.67" height="33.67" style="fill:#f9e380"/><rect x="2780.21" y="3093.05" width="33.67" height="33.67" style="fill:#f9e380"/><rect x="2823.55" y="3093.05" width="33.67" height="33.67" style="fill:#f9e380"/><rect x="2866.88" y="3093.05" width="33.67" height="33.67" style="fill:#f9e380"/><rect x="2910.21" y="3093.05" width="33.67" height="33.67" style="fill:#f9e380"/><rect x="2780.21" y="3135.72" width="33.67" height="33.67" style="fill:#f9e380"/><rect x="2823.55" y="3135.72" width="33.67" height="33.67" style="fill:#f9e380"/><rect x="2866.88" y="3135.72" width="33.67" height="33.67" style="fill:#f9e380"/><rect x="2910.21" y="3135.72" width="33.67" height="33.67" style="fill:#f9e380"/><rect x="2780.21" y="3178.38" width="33.67" height="33.67" style="fill:#f9e380"/><rect x="2823.55" y="3178.38" width="33.67" height="33.67" style="fill:#f9e380"/><rect x="2866.88" y="3178.38" width="33.67" height="33.67" style="fill:#f9e380"/><rect x="2910.21" y="3178.38" width="33.67" height="33.67" style="fill:#f9e380"/><rect x="2780.21" y="3221.05" width="33.67" height="33.67" style="fill:#f9e380"/><rect x="2823.55" y="3221.05" width="33.67" height="33.67" style="fill:#f9e380"/><rect x="2866.88" y="3221.05" width="33.67" height="33.67" style="fill:#f9e380"/><rect x="2910.21" y="3221.05" width="33.67" height="33.67" style="fill:#f9e380"/><rect x="2780.21" y="3263.72" width="33.67" height="33.67" style="fill:#f9e380"/><rect x="2823.55" y="3263.72" width="33.67" height="33.67" style="fill:#f9e380"/><rect x="2866.88" y="3263.72" width="33.67" height="33.67" style="fill:#f9e380"/><rect x="2910.21" y="3263.72" width="33.67" height="33.67" style="fill:#f9e380"/><rect x="2780.21" y="3306.38" width="33.67" height="33.67" style="fill:#f9e380"/><rect x="2823.55" y="3306.38" width="33.67" height="33.67" style="fill:#f9e380"/><rect x="2866.88" y="3306.38" width="33.67" height="33.67" style="fill:#f9e380"/><rect x="2910.21" y="3306.38" width="33.67" height="33.67" style="fill:#f9e380"/><rect x="2780.21" y="3349.05" width="33.67" height="33.67" style="fill:#f9e380"/><rect x="2823.55" y="3349.05" width="33.67" height="33.67" style="fill:#f9e380"/><rect x="2866.88" y="3349.05" width="33.67" height="33.67" style="fill:#f9e380"/><rect x="2910.21" y="3349.05" width="33.67" height="33.67" style="fill:#f9e380"/><rect x="2780.21" y="3391.72" width="33.67" height="33.67" style="fill:#f9e380"/><rect x="2823.55" y="3391.72" width="33.67" height="33.67" style="fill:#f9e380"/><rect x="2866.88" y="3391.72" width="33.67" height="33.67" style="fill:#f9e380"/><rect x="2910.21" y="3391.72" width="33.67" height="33.67" style="fill:#f9e380"/><rect x="2780.21" y="3434.38" width="33.67" height="33.67" style="fill:#f9e380"/><rect x="2823.55" y="3434.38" width="33.67" height="33.67" style="fill:#f9e380"/><rect x="2866.88" y="3434.38" width="33.67" height="33.67" style="fill:#f9e380"/><rect x="2910.21" y="3434.38" width="33.67" height="33.67" style="fill:#f9e380"/><rect x="2083.64" y="2890" width="201.69" height="19.55" style="fill:#f9e380"/><rect x="2083.64" y="3033" width="201.69" height="19.55" style="fill:#f9e380"/><rect x="2083.64" y="3176" width="201.69" height="19.55" style="fill:#f9e380"/><rect x="2083.64" y="3319" width="201.69" height="19.55" style="fill:#f9e380"/><rect x="2083.64" y="3462" width="201.69" height="19.55" style="fill:#f9e380"/><rect x="2083.64" y="2938.33" width="88.03" height="19.55" style="fill:#f9e380"/><rect x="2083.64" y="2985.67" width="88.03" height="19.55" style="fill:#f9e380"/><rect x="3896.75" y="3396.27" width="54.92" height="16.12" style="fill:#f9e380"/><rect x="3897.54" y="3514.15" width="199.21" height="16.12" style="fill:#f9e380"/><rect x="3826.33" y="3556.7" width="270.42" height="16.12" style="fill:#f9e380"/><rect x="3826.33" y="3599.24" width="270.42" height="16.12" style="fill:#f9e380"/><rect x="3826.33" y="3641.78" width="270.42" height="16.12" style="fill:#f9e380"/><rect x="3826.33" y="3684.33" width="88.56" height="16.12" style="fill:#f9e380"/><rect x="3896.75" y="3436.12" width="120.25" height="16.12" style="fill:#f9e380"/><rect x="3896.75" y="3475.13" width="36.28" height="16.12" style="fill:#f9e380"/><rect x="1537.67" y="3100.88" width="69.33" height="69.33" style="fill:#f9e380"/><rect x="1407.67" y="3277.88" width="69.33" height="69.33" style="fill:#f9e380"/><rect x="1407.67" y="3483.88" width="69.33" height="69.33" style="fill:#f9e380"/><rect x="3269.53" y="3135.72" width="63.3" height="63.3" transform="translate(6602.37 6334.74) rotate(180)" style="fill:#f9e380"/><rect x="3150.84" y="3244.67" width="63.3" height="63.3" transform="translate(6364.98 6552.65) rotate(180)" style="fill:#f9e380"/><rect x="3150.84" y="3366.41" width="63.3" height="63.3" transform="translate(6364.98 6796.13) rotate(180)" style="fill:#f9e380"/><rect x="3269.53" y="3528.02" width="63.3" height="63.3" transform="translate(6602.37 7119.35) rotate(180)" style="fill:#f9e380"/><rect x="2403.26" y="3362.75" width="37.43" height="37.43" transform="translate(4843.94 6762.93) rotate(180)" style="fill:#f9e380"/><rect x="2629.76" y="3449.55" width="43" height="43" transform="translate(5302.51 6942.1) rotate(180)" style="fill:#f9e380"/><rect x="2554.26" y="3449.55" width="43" height="43" transform="translate(5151.51 6942.1) rotate(180)" style="fill:#f9e380"/><rect x="2478.76" y="3449.55" width="43" height="43" transform="translate(5000.51 6942.1) rotate(180)" style="fill:#f9e380"/><rect x="2629.76" y="3564.22" width="43" height="43" transform="translate(5302.51 7171.43) rotate(180)" style="fill:#f9e380"/><rect x="2478.76" y="3564.22" width="43" height="43" transform="translate(5000.51 7171.43) rotate(180)" style="fill:#f9e380"/><rect x="2629.76" y="3678.88" width="43" height="43" transform="translate(5302.51 7400.77) rotate(180)" style="fill:#f9e380"/><rect x="2554.26" y="3678.88" width="43" height="43" transform="translate(5151.51 7400.77) rotate(180)" style="fill:#f9e380"/><rect x="2629.76" y="3793.55" width="43" height="43" transform="translate(5302.51 7630.1) rotate(180)" style="fill:#f9e380"/><rect x="2478.76" y="3793.55" width="43" height="43" transform="translate(5000.51 7630.1) rotate(180)" style="fill:#f9e380"/><rect x="2403.26" y="3564.22" width="43" height="43" transform="translate(4849.51 7171.43) rotate(180)" style="fill:#f9e380"/><rect x="2403.26" y="3678.88" width="43" height="43" transform="translate(4849.51 7400.77) rotate(180)" style="fill:#f9e380"/><rect x="109" y="3838.5" width="43" height="43" style="fill:#f9e380"/><rect x="184.5" y="3838.5" width="43" height="43" style="fill:#f9e380"/><rect x="260" y="3838.5" width="43" height="43" style="fill:#f9e380"/><rect x="33.5" y="3937.5" width="43" height="43" style="fill:#f9e380"/><rect x="109" y="3937.5" width="43" height="43" style="fill:#f9e380"/><rect x="260" y="3937.5" width="43" height="43" style="fill:#f9e380"/><rect x="33.5" y="4036.5" width="43" height="43" style="fill:#f9e380"/><rect x="184.5" y="4036.5" width="43" height="43" style="fill:#f9e380"/><rect x="260" y="4036.5" width="43" height="43" style="fill:#f9e380"/><rect y="4245" width="5000" height="755" style="fill:#00110e"/></g></svg>